<svg width="124" height="124" viewBox="0 0 124 124" fill="none" xmlns="http://www.w3.org/2000/svg">
<path d="M117.8 47.5334H100.547C98.0449 47.5317 95.853 49.2108 95.2031 51.6275H89.3234C99.1006 37.2918 96.1331 17.837 82.5268 7.06791C68.9204 -3.70114 49.3041 -2.12065 37.5974 10.6879C25.8907 23.4964 26.0763 43.1754 38.0225 55.7608L28.7969 55.7484C28.1423 53.3367 25.9516 51.6636 23.4525 51.6668H6.2C2.77583 51.6668 0 54.4426 0 57.8668V95.0668C0 98.4909 2.77583 101.267 6.2 101.267H16.4465C18.9583 101.263 21.151 99.5645 21.7827 97.1334H25.3456L23.0123 103.333C22.3342 105.125 22.3975 107.113 23.1882 108.858C23.9789 110.604 25.432 111.962 27.2263 112.633C29.0474 113.31 31.0644 113.226 32.8228 112.4C32.8331 112.425 32.8373 112.45 32.8476 112.474C34.018 115.061 36.5931 116.723 39.432 116.725C40.49 116.722 41.5346 116.488 42.4927 116.039C42.4927 116.064 42.5072 116.089 42.5175 116.114C43.6882 118.699 46.2622 120.36 49.0999 120.363C50.1586 120.36 51.2039 120.126 52.1627 119.677C52.173 119.701 52.1751 119.726 52.1854 119.749C53.3875 122.417 56.0789 124.098 59.004 124.008C61.9292 123.917 64.5116 122.073 65.5464 119.336L65.6704 119.009L72.6971 122.44C73.6699 122.914 74.7377 123.16 75.8198 123.161C76.6337 123.159 77.4414 123.019 78.2089 122.748C80.0275 122.113 81.5136 120.772 82.3319 119.028C83.156 117.27 83.246 115.256 82.5819 113.431L82.6543 113.406C84.4734 112.761 85.9591 111.415 86.7808 109.669C87.6025 107.922 87.692 105.919 87.0294 104.106L87.0955 104.084C88.915 103.439 90.4012 102.093 91.2233 100.346C92.0454 98.5997 92.1352 96.5969 91.4727 94.7836C92.5202 94.4101 93.4672 93.7998 94.24 93.0001H102.217C102.849 95.4311 105.042 97.1296 107.553 97.1334H117.8C121.224 97.1334 124 94.3576 124 90.9334V53.7334C124 50.3093 121.224 47.5334 117.8 47.5334ZM33.0667 33.0668C33.0483 20.2754 41.4315 8.98993 53.6831 5.31304C65.9346 1.63615 79.1467 6.44052 86.1748 17.1282C93.2028 27.8159 92.3789 41.8501 84.1485 51.642L64.79 51.6668C62.4299 51.6676 60.1793 52.6624 58.59 54.4072L57.3293 55.8001L44.1254 55.7836C37.1231 50.3301 33.0398 41.9422 33.0667 33.0668ZM17.8291 95.9802C17.7073 96.6482 17.1255 97.1335 16.4465 97.1334H6.2C5.05861 97.1334 4.13333 96.2082 4.13333 95.0668V57.8668C4.13333 56.7254 5.05861 55.8001 6.2 55.8001H23.4525C23.8687 55.7995 24.2636 55.9838 24.5303 56.3032C24.797 56.6227 24.9079 57.0441 24.8331 57.4534L17.8291 95.9802ZM35.6025 99.1795L33.8954 103.695L32.6554 106.965C32.2079 108.13 31.1047 108.914 29.8566 108.952C28.6086 108.99 27.4594 108.276 26.9411 107.14C26.6039 106.396 26.5794 105.548 26.8729 104.786L29.791 97.0487C30.0736 96.2898 30.6492 95.6762 31.3885 95.3458C31.792 95.1615 32.2304 95.0663 32.674 95.0668C33.0581 95.0674 33.439 95.1374 33.7983 95.2734C35.0029 95.726 35.7991 96.8799 35.7947 98.1668C35.7933 98.5125 35.731 98.8553 35.6107 99.1795H35.6025ZM42.3336 110.592C41.892 111.767 40.785 112.56 39.5301 112.6C38.2751 112.639 37.1201 111.918 36.6048 110.773C36.2658 110.03 36.239 109.181 36.5304 108.417L37.8241 104.997L39.4733 100.709C39.4899 100.67 39.494 100.628 39.5085 100.589L40.1946 98.7702C40.6521 97.5643 41.8084 96.7676 43.0983 96.7697C44.1122 96.7693 45.0619 97.2665 45.6393 98.1C46.2167 98.9335 46.3484 99.9973 45.9916 100.946L42.3336 110.592ZM54.1901 108.436L52.0035 114.223C51.7125 114.992 51.1279 115.614 50.3783 115.952C49.6287 116.29 48.7756 116.316 48.0066 116.025C47.2388 115.738 46.6169 115.157 46.278 114.41C45.9392 113.664 45.9112 112.814 46.2003 112.047L49.8459 102.401C50.2882 101.227 51.3945 100.436 52.6485 100.396C53.9024 100.356 55.0568 101.076 55.5727 102.22C55.9117 102.963 55.9385 103.812 55.6471 104.576L54.1901 108.436ZM63.86 112.078L61.6735 117.864C61.3825 118.633 60.7979 119.255 60.0483 119.593C59.2987 119.931 58.4455 119.957 57.6765 119.666C56.9093 119.379 56.2879 118.799 55.9494 118.053C55.6109 117.307 55.5832 116.457 55.8723 115.69L58.0589 109.903C58.502 108.73 59.6089 107.939 60.8628 107.9C62.1167 107.861 63.2705 108.582 63.7856 109.726C64.1235 110.468 64.1503 111.315 63.86 112.078ZM91.9129 89.2801C91.159 90.7918 89.3414 91.4321 87.8064 90.7268L82.2265 88.0608C81.2156 87.6553 80.0635 88.104 79.5931 89.0863C79.1227 90.0686 79.4954 91.2474 80.445 91.7808L86.025 94.4426L86.0415 94.455C87.0749 94.9095 87.7796 95.8898 87.8811 97.0141C87.9826 98.1384 87.4648 99.229 86.5295 99.8612C85.5942 100.493 84.3892 100.567 83.3838 100.054L77.3904 97.183C76.3777 96.7675 75.2165 97.2138 74.7428 98.2007C74.269 99.1876 74.6471 100.373 75.6049 100.903L81.5982 103.772C82.7297 104.312 83.424 105.482 83.357 106.734C83.29 107.986 82.4751 109.075 81.2923 109.492C80.5224 109.766 79.6753 109.721 78.9384 109.368H78.9074L73.2489 106.65C72.2339 106.223 71.0624 106.667 70.585 107.659C70.1076 108.652 70.492 109.844 71.4591 110.37L77.1425 113.098C78.6797 113.85 79.3251 115.699 78.5891 117.244C78.2396 117.979 77.6122 118.544 76.8453 118.815C76.0784 119.087 75.235 119.042 74.5013 118.691L67.1377 115.113L67.7329 113.537C68.6518 111.149 68.2296 108.453 66.6248 106.462C65.0201 104.47 62.4759 103.483 59.9478 103.873C60.0909 101.342 58.8911 98.9219 56.7895 97.5036C54.688 96.0854 51.9951 95.878 49.7013 96.9578C49.7013 96.933 49.6868 96.9082 49.6765 96.8834C48.7685 94.8728 46.9902 93.3885 44.8496 92.8546C42.7091 92.3208 40.442 92.7962 38.6963 94.1451C37.5106 92.3487 35.5819 91.1786 33.441 90.9568C31.3 90.735 29.1725 91.4849 27.6437 93.0001H22.5721L28.5903 59.8942L43.2636 59.9128C43.3091 59.9128 43.3545 59.9355 43.4 59.9355C43.4455 59.9355 43.462 59.9148 43.493 59.9148L53.5783 59.9272L43.7596 70.7276C40.8063 73.9674 40.9103 78.9533 43.996 82.0672C47.0818 85.181 52.0665 85.3302 55.3329 82.4064L66.1333 72.6538L90.458 85.1282C92.0038 85.8752 92.6543 87.7316 91.9129 89.2801ZM96.2529 88.8668C96.6709 85.7915 95.0731 82.7941 92.287 81.4268L69.409 69.6902L71.6493 67.6669C72.4649 66.8954 72.5154 65.6138 71.763 64.7805C71.0105 63.9472 69.7304 63.867 68.8799 64.6L52.5719 79.327C50.9437 80.7768 48.4656 80.6982 46.9327 79.1482C45.3997 77.5981 45.3485 75.1193 46.8162 73.5073L61.6528 57.1806C62.4593 56.2993 63.5995 55.7982 64.7941 55.8001L85.0475 55.7732C85.1342 55.7784 85.2211 55.7784 85.3079 55.7732L95.4056 55.7608L101.428 88.8668H96.2529ZM119.867 90.9334C119.867 92.0748 118.941 93.0001 117.8 93.0001H107.553C106.875 93.0001 106.293 92.5148 106.171 91.8469L99.1669 53.3201C99.092 52.9108 99.203 52.4893 99.4697 52.1699C99.7364 51.8505 100.131 51.6661 100.547 51.6668H117.8C118.941 51.6668 119.867 52.5921 119.867 53.7334V90.9334Z" fill="#2A9E38"/>
</svg>
