<svg width="12" height="15" viewBox="0 0 12 15" fill="none" xmlns="http://www.w3.org/2000/svg">
<path d="M5.43957 0.80623L0.230318 6.01536C0.0816199 6.16406 0 6.36225 0 6.57357C0 6.78512 0.0817371 6.98319 0.230318 7.13189L0.703385 7.60484C0.851849 7.75342 1.05015 7.83527 1.26159 7.83527C1.47291 7.83527 1.6779 7.75342 1.82636 7.60484L4.87198 4.56591L4.87198 14.2207C4.87198 14.656 5.21277 15 5.64819 15H6.31698C6.7524 15 7.12755 14.656 7.12755 14.2207L7.12755 4.53143L10.1902 7.60472C10.3389 7.7533 10.5318 7.83516 10.7432 7.83516C10.9544 7.83516 11.1501 7.7533 11.2987 7.60472L11.7703 7.13177C11.919 6.98307 12 6.785 12 6.57345C12 6.36213 11.9179 6.16394 11.7692 6.01524L6.56008 0.806112C6.41091 0.657063 6.21179 0.57509 6.00012 0.575677C5.78774 0.575208 5.5885 0.657063 5.43957 0.80623Z" fill="white"/>
</svg>
